<mxfile host="Electron" modified="2024-12-11T05:57:55.057Z" agent="Mozilla/5.0 (Windows NT 10.0; Win64; x64) AppleWebKit/537.36 (KHTML, like Gecko) draw.io/21.6.1 Chrome/112.0.5615.204 Electron/24.6.1 Safari/537.36" etag="26g-695T20EqibLwNhsH" version="21.6.1" type="device" pages="2">
  <diagram name="Page-1" id="NQmoR_fB4QXLGY69Nmxi">
    <mxGraphModel dx="1418" dy="820" grid="1" gridSize="10" guides="1" tooltips="1" connect="1" arrows="1" fold="1" page="1" pageScale="1" pageWidth="850" pageHeight="1100" math="0" shadow="0">
      <root>
        <mxCell id="0" />
        <mxCell id="1" parent="0" />
        <mxCell id="aDm56ZLSryOhlQ-H0S3D-1" value="Admin" style="shape=umlActor;verticalLabelPosition=bottom;verticalAlign=top;html=1;outlineConnect=0;" parent="1" vertex="1">
          <mxGeometry x="60" y="460" width="60" height="100" as="geometry" />
        </mxCell>
        <mxCell id="aDm56ZLSryOhlQ-H0S3D-2" value="" style="whiteSpace=wrap;html=1;aspect=fixed;" parent="1" vertex="1">
          <mxGeometry x="130" y="190" width="620" height="620" as="geometry" />
        </mxCell>
        <mxCell id="aDm56ZLSryOhlQ-H0S3D-5" value="Customer" style="shape=umlActor;verticalLabelPosition=bottom;verticalAlign=top;html=1;outlineConnect=0;" parent="1" vertex="1">
          <mxGeometry x="750" y="250" width="60" height="100" as="geometry" />
        </mxCell>
        <mxCell id="aDm56ZLSryOhlQ-H0S3D-6" value="Loan Manager" style="shape=umlActor;verticalLabelPosition=bottom;verticalAlign=top;html=1;outlineConnect=0;" parent="1" vertex="1">
          <mxGeometry x="750" y="660" width="60" height="100" as="geometry" />
        </mxCell>
        <mxCell id="aDm56ZLSryOhlQ-H0S3D-13" value="Login" style="ellipse;whiteSpace=wrap;html=1;" parent="1" vertex="1">
          <mxGeometry x="200" y="261" width="130" height="40" as="geometry" />
        </mxCell>
        <mxCell id="aDm56ZLSryOhlQ-H0S3D-14" value="Type Of Loan" style="ellipse;whiteSpace=wrap;html=1;" parent="1" vertex="1">
          <mxGeometry x="200" y="311" width="130" height="40" as="geometry" />
        </mxCell>
        <mxCell id="aDm56ZLSryOhlQ-H0S3D-15" value="Paid Installments" style="ellipse;whiteSpace=wrap;html=1;" parent="1" vertex="1">
          <mxGeometry x="200" y="361" width="130" height="40" as="geometry" />
        </mxCell>
        <mxCell id="aDm56ZLSryOhlQ-H0S3D-16" value="Acoount Details" style="ellipse;whiteSpace=wrap;html=1;" parent="1" vertex="1">
          <mxGeometry x="200" y="411" width="130" height="40" as="geometry" />
        </mxCell>
        <mxCell id="aDm56ZLSryOhlQ-H0S3D-17" value="Send Notice" style="ellipse;whiteSpace=wrap;html=1;" parent="1" vertex="1">
          <mxGeometry x="200" y="461" width="130" height="40" as="geometry" />
        </mxCell>
        <mxCell id="aDm56ZLSryOhlQ-H0S3D-18" value="Kick Staff" style="ellipse;whiteSpace=wrap;html=1;" parent="1" vertex="1">
          <mxGeometry x="200" y="511" width="130" height="40" as="geometry" />
        </mxCell>
        <mxCell id="aDm56ZLSryOhlQ-H0S3D-19" value="Add Staff" style="ellipse;whiteSpace=wrap;html=1;" parent="1" vertex="1">
          <mxGeometry x="200" y="561" width="130" height="40" as="geometry" />
        </mxCell>
        <mxCell id="aDm56ZLSryOhlQ-H0S3D-20" value="Staff Details" style="ellipse;whiteSpace=wrap;html=1;" parent="1" vertex="1">
          <mxGeometry x="200" y="611" width="130" height="40" as="geometry" />
        </mxCell>
        <mxCell id="aDm56ZLSryOhlQ-H0S3D-21" value="Duty Hours" style="ellipse;whiteSpace=wrap;html=1;" parent="1" vertex="1">
          <mxGeometry x="200" y="661" width="130" height="40" as="geometry" />
        </mxCell>
        <mxCell id="aDm56ZLSryOhlQ-H0S3D-22" value="Eligibilty for Loan" style="ellipse;whiteSpace=wrap;html=1;container=1;" parent="1" vertex="1">
          <mxGeometry x="200" y="711" width="130" height="40" as="geometry" />
        </mxCell>
        <mxCell id="aDm56ZLSryOhlQ-H0S3D-23" value="Account&lt;br&gt;" style="ellipse;whiteSpace=wrap;html=1;" parent="1" vertex="1">
          <mxGeometry x="460" y="261" width="130" height="40" as="geometry" />
        </mxCell>
        <mxCell id="aDm56ZLSryOhlQ-H0S3D-25" value="Joint Accounts" style="ellipse;whiteSpace=wrap;html=1;" parent="1" vertex="1">
          <mxGeometry x="460" y="311" width="130" height="40" as="geometry" />
        </mxCell>
        <mxCell id="aDm56ZLSryOhlQ-H0S3D-26" value="&lt;h1&gt;Loan Management System&lt;/h1&gt;" style="text;html=1;strokeColor=none;fillColor=none;spacing=5;spacingTop=-20;whiteSpace=wrap;overflow=hidden;rounded=0;" parent="1" vertex="1">
          <mxGeometry x="280" y="210" width="340" height="40" as="geometry" />
        </mxCell>
        <mxCell id="aDm56ZLSryOhlQ-H0S3D-27" value="Pay Installments" style="ellipse;whiteSpace=wrap;html=1;" parent="1" vertex="1">
          <mxGeometry x="460" y="361" width="130" height="40" as="geometry" />
        </mxCell>
        <mxCell id="aDm56ZLSryOhlQ-H0S3D-28" value="Requset New Loan" style="ellipse;whiteSpace=wrap;html=1;" parent="1" vertex="1">
          <mxGeometry x="460" y="411" width="130" height="40" as="geometry" />
        </mxCell>
        <mxCell id="aDm56ZLSryOhlQ-H0S3D-29" value="Credit Score" style="ellipse;whiteSpace=wrap;html=1;" parent="1" vertex="1">
          <mxGeometry x="460" y="461" width="130" height="40" as="geometry" />
        </mxCell>
        <mxCell id="aDm56ZLSryOhlQ-H0S3D-30" value="" style="ellipse;whiteSpace=wrap;html=1;" parent="1" vertex="1">
          <mxGeometry x="460" y="511" width="130" height="40" as="geometry" />
        </mxCell>
      </root>
    </mxGraphModel>
  </diagram>
  <diagram id="nCWm4wVRHjWpYYUwMe5C" name="Page-2">
    <mxGraphModel dx="2026" dy="1171" grid="1" gridSize="10" guides="1" tooltips="1" connect="1" arrows="1" fold="1" page="1" pageScale="1" pageWidth="850" pageHeight="1100" math="0" shadow="0">
      <root>
        <mxCell id="0" />
        <mxCell id="1" parent="0" />
        <mxCell id="pCZOoiMSMfFTzn1gEJaT-5" value="Vertical Container" style="swimlane;whiteSpace=wrap;html=1;fillColor=default;" vertex="1" parent="1">
          <mxGeometry x="40" y="20" width="760" height="1060" as="geometry" />
        </mxCell>
        <mxCell id="pCZOoiMSMfFTzn1gEJaT-1" value="" style="ellipse;whiteSpace=wrap;html=1;aspect=fixed;fillColor=#191919;" vertex="1" parent="pCZOoiMSMfFTzn1gEJaT-5">
          <mxGeometry x="370" y="40" width="20" height="20" as="geometry" />
        </mxCell>
        <mxCell id="pCZOoiMSMfFTzn1gEJaT-7" style="edgeStyle=orthogonalEdgeStyle;rounded=0;orthogonalLoop=1;jettySize=auto;html=1;exitX=0.5;exitY=1;exitDx=0;exitDy=0;entryX=0.5;entryY=0;entryDx=0;entryDy=0;" edge="1" parent="pCZOoiMSMfFTzn1gEJaT-5" source="pCZOoiMSMfFTzn1gEJaT-3" target="pCZOoiMSMfFTzn1gEJaT-6">
          <mxGeometry relative="1" as="geometry" />
        </mxCell>
        <mxCell id="pCZOoiMSMfFTzn1gEJaT-9" style="edgeStyle=orthogonalEdgeStyle;rounded=0;orthogonalLoop=1;jettySize=auto;html=1;exitX=0;exitY=0.5;exitDx=0;exitDy=0;" edge="1" parent="pCZOoiMSMfFTzn1gEJaT-5" source="pCZOoiMSMfFTzn1gEJaT-3" target="pCZOoiMSMfFTzn1gEJaT-8">
          <mxGeometry relative="1" as="geometry" />
        </mxCell>
        <mxCell id="pCZOoiMSMfFTzn1gEJaT-3" value="" style="rhombus;whiteSpace=wrap;html=1;" vertex="1" parent="pCZOoiMSMfFTzn1gEJaT-5">
          <mxGeometry x="310" y="120" width="140" height="60" as="geometry" />
        </mxCell>
        <mxCell id="pCZOoiMSMfFTzn1gEJaT-4" style="edgeStyle=orthogonalEdgeStyle;rounded=0;orthogonalLoop=1;jettySize=auto;html=1;exitX=0.5;exitY=1;exitDx=0;exitDy=0;" edge="1" parent="pCZOoiMSMfFTzn1gEJaT-5" source="pCZOoiMSMfFTzn1gEJaT-1" target="pCZOoiMSMfFTzn1gEJaT-3">
          <mxGeometry relative="1" as="geometry" />
        </mxCell>
        <mxCell id="pCZOoiMSMfFTzn1gEJaT-6" value="" style="rounded=1;whiteSpace=wrap;html=1;" vertex="1" parent="pCZOoiMSMfFTzn1gEJaT-5">
          <mxGeometry x="320" y="240" width="120" height="60" as="geometry" />
        </mxCell>
        <mxCell id="pCZOoiMSMfFTzn1gEJaT-17" value="" style="edgeStyle=orthogonalEdgeStyle;rounded=0;orthogonalLoop=1;jettySize=auto;html=1;" edge="1" parent="pCZOoiMSMfFTzn1gEJaT-5" source="pCZOoiMSMfFTzn1gEJaT-8" target="pCZOoiMSMfFTzn1gEJaT-16">
          <mxGeometry relative="1" as="geometry" />
        </mxCell>
        <mxCell id="pCZOoiMSMfFTzn1gEJaT-8" value="" style="rounded=1;whiteSpace=wrap;html=1;" vertex="1" parent="pCZOoiMSMfFTzn1gEJaT-5">
          <mxGeometry x="80" y="240" width="120" height="60" as="geometry" />
        </mxCell>
        <mxCell id="pCZOoiMSMfFTzn1gEJaT-15" value="" style="ellipse;whiteSpace=wrap;html=1;aspect=fixed;fillColor=#191919;" vertex="1" parent="pCZOoiMSMfFTzn1gEJaT-5">
          <mxGeometry x="130" y="365" width="20" height="20" as="geometry" />
        </mxCell>
        <mxCell id="pCZOoiMSMfFTzn1gEJaT-16" value="" style="ellipse;whiteSpace=wrap;html=1;aspect=fixed;fillColor=none;" vertex="1" parent="pCZOoiMSMfFTzn1gEJaT-5">
          <mxGeometry x="125" y="360" width="30" height="30" as="geometry" />
        </mxCell>
      </root>
    </mxGraphModel>
  </diagram>
</mxfile>
